<?xml version="1.0" encoding="UTF-8" standalone="no"?><!DOCTYPE svg PUBLIC "-//W3C//DTD SVG 1.1//EN" "http://www.w3.org/Graphics/SVG/1.1/DTD/svg11.dtd"><svg width="100%" height="100%" viewBox="0 0 115 129" version="1.1" xmlns="http://www.w3.org/2000/svg" xmlns:xlink="http://www.w3.org/1999/xlink" xml:space="preserve" xmlns:serif="http://www.serif.com/" style="fill-rule:evenodd;clip-rule:evenodd;stroke-linejoin:round;stroke-miterlimit:2;"><path d="M79.685,46.694c0,6.754 -5.483,12.229 -12.247,12.229c-6.764,0 -12.247,-5.475 -12.247,-12.229c0,-6.754 5.483,-12.229 12.247,-12.229c6.764,-0 12.247,5.475 12.247,12.229Z" style="fill:#ffc131;fill-rule:nonzero;"/><ellipse cx="46.841" cy="81.714" rx="12.247" ry="12.229" style="fill:#24c8db;"/><path d="M92.821,85.911c-4.943,3.189 -10.419,5.403 -16.134,6.555c1.17,-3.368 1.806,-6.986 1.806,-10.751c-0,-1.366 -0.084,-2.713 -0.246,-4.035c2.458,-0.855 4.819,-2.003 7.028,-3.428c5.314,-3.43 9.524,-8.32 12.123,-14.081c2.599,-5.762 3.477,-12.15 2.528,-18.397c-0.949,-6.248 -3.684,-12.089 -7.877,-16.822c-4.193,-4.732 -9.665,-8.155 -15.76,-9.857c-6.094,-1.702 -12.55,-1.611 -18.594,0.263c-6.044,1.873 -11.417,5.45 -15.474,10.299c-0.52,0.621 -1.015,1.26 -1.485,1.914c-6.261,0.695 -12.325,2.464 -17.933,5.201c1.826,-5.835 4.789,-11.282 8.749,-16.015c5.774,-6.901 13.42,-11.991 22.021,-14.657c8.6,-2.666 17.789,-2.796 26.461,-0.374c8.673,2.422 16.46,7.293 22.427,14.028c5.968,6.735 9.86,15.047 11.21,23.938c1.351,8.891 0.101,17.982 -3.598,26.18c-3.698,8.199 -9.689,15.157 -17.252,20.038Z" style="fill:#ffc131;"/><path d="M21.379,42.498c4.98,-3.213 10.501,-5.437 16.262,-6.581c-1.302,3.532 -2.013,7.35 -2.013,11.333c-0,1.191 0.063,2.368 0.187,3.527c-2.409,0.85 -4.722,1.981 -6.89,3.38c-5.314,3.43 -9.524,8.319 -12.123,14.081c-2.6,5.761 -3.477,12.149 -2.528,18.397c0.948,6.247 3.684,12.088 7.877,16.821c4.193,4.733 9.665,8.156 15.759,9.858c6.095,1.702 12.551,1.611 18.595,-0.263c6.043,-1.874 11.417,-5.45 15.474,-10.299c0.522,-0.625 1.02,-1.266 1.492,-1.925c6.266,-0.705 12.332,-2.486 17.94,-5.237c-1.824,5.853 -4.793,11.316 -8.763,16.062c-5.774,6.901 -13.421,11.99 -22.021,14.657c-8.6,2.666 -17.789,2.796 -26.461,0.374c-8.673,-2.422 -16.46,-7.294 -22.427,-14.029c-5.967,-6.735 -9.86,-15.047 -11.21,-23.938c-1.351,-8.89 -0.101,-17.981 3.597,-26.18c3.699,-8.199 9.69,-15.157 17.253,-20.038Zm69.395,44.614l-0,0c-0.099,0.058 -0.199,0.115 -0.299,0.171c0.1,-0.056 0.2,-0.113 0.299,-0.171Zm-11.934,4.847c-0.311,0.078 -0.624,0.154 -0.937,0.227c0,-0.001 -0,-0.001 -0,-0c0.313,-0.073 0.626,-0.149 0.937,-0.227Z" style="fill:#24c8db;"/></svg>