<?xml version="1.0" encoding="UTF-8" standalone="no"?><!DOCTYPE svg PUBLIC "-//W3C//DTD SVG 1.1//EN" "http://www.w3.org/Graphics/SVG/1.1/DTD/svg11.dtd"><svg width="100%" height="100%" viewBox="0 0 160 200" version="1.1" xmlns="http://www.w3.org/2000/svg" xmlns:xlink="http://www.w3.org/1999/xlink" xml:space="preserve" xmlns:serif="http://www.serif.com/" style="fill-rule:evenodd;clip-rule:evenodd;stroke-linejoin:round;stroke-miterlimit:2;"><path d="M40,120l20,-60l90,90l-30,50l-40,-40l-20,0" style="fill:#00e8ff;fill-rule:nonzero;"/><path d="M80,160l0,-80l40,-40l0,80m-120,40l40,40l20,-40l-20,-40l-20,0" style="fill:#283198;fill-rule:nonzero;"/><path d="M40,120l0,-80l40,-40l0,80m40,120l0,-80l40,-40l0,80m-160,0l0,-80l40,40" style="fill:#324fff;fill-rule:nonzero;"/><path d="M40,200l0,-80l40,40" style="fill:#0ff;fill-rule:nonzero;"/></svg>